<?xml version="1.0" standalone="no"?><!DOCTYPE svg PUBLIC "-//W3C//DTD SVG 1.1//EN" "http://www.w3.org/Graphics/SVG/1.1/DTD/svg11.dtd"><svg class="icon" width="128px" height="127.50px" viewBox="0 0 1028 1024" version="1.1" xmlns="http://www.w3.org/2000/svg"><path fill="#333333" d="M986.074074 352.771311c-17.457966 0-31.303939 15.049971-31.303939 34.313933l0 493.037037c0 39.129924-29.497942 71.035861-65.617872 71.035861L131.235744 951.158142c-36.119929 0-65.617872-31.905938-65.617872-71.035861L65.617872 143.877719c0-39.129924 29.497942-71.035861 65.617872-71.035861l512.300999 0c17.457966 0 31.303939-15.049971 31.303939-34.313933 0-18.661964-13.845973-34.313933-31.303939-34.313933L131.235744 4.213992C60.199882 4.815991 3.009994 66.821869 3.009994 143.877719l0 736.244562c0 77.05585 57.791887 139.061728 128.22575 139.061728l757.91652 0c71.035861 0 128.22575-62.607878 128.22575-139.061728L1017.378013 387.085244C1017.378013 367.821282 1003.53204 352.771311 986.074074 352.771311zM288.959436 561.062904 288.959436 561.062904c-1.203998 2.407995-3.009994 5.417989-3.611993 7.825985l-66.821869 222.739565c-2.407995 9.029982 0 18.661964 6.621987 25.283951 4.815991 4.815991 11.437978 7.223986 18.059965 7.223986 2.407995 0 4.815991-0.601999 7.223986-1.203998l222.739565-66.821869c3.009994-0.601999 5.417989-1.805996 7.825985-3.611993l0 0 533.972957-533.972957c7.825985-7.825985 12.039976-18.059965 12.039976-28.895944 0-10.835979-4.213992-21.069959-12.039976-28.895944L879.520282 27.089947c-15.651969-15.651969-41.537919-15.651969-57.189888 0L290.765432 558.654909 288.959436 561.062904zM809.08642 112.57378l42.139918-42.139918 119.797766 119.797766-42.139918 42.139918L809.08642 112.57378zM363.60729 558.05291l409.3592-409.3592 119.797766 119.797766-409.3592 409.3592L363.60729 558.05291zM281.133451 760.926514l47.557907-159.529688 111.971781 111.971781L281.133451 760.926514z" /></svg>