<?xml version="1.0" standalone="no"?><!DOCTYPE svg PUBLIC "-//W3C//DTD SVG 1.1//EN" "http://www.w3.org/Graphics/SVG/1.1/DTD/svg11.dtd"><svg class="icon" width="128px" height="128.00px" viewBox="0 0 1024 1024" version="1.1" xmlns="http://www.w3.org/2000/svg"><path fill="#333333" d="M662.124136 524.453636c23.193235 0 41.998533-18.805298 41.998533-41.998533s-18.805298-41.998533-41.998533-41.998533l-90.617857 0 97.821933-97.845469c16.398482-16.405645 16.398482-42.996257-0.007163-59.394738-16.412808-16.398482-42.996257-16.392342-59.394738 0.007163l-97.828073 97.851609-97.855702-97.844445c-16.405645-16.392342-42.989093-16.398482-59.394738 0.007163-16.398482 16.398482-16.398482 42.989093 0.007163 59.394738l97.837282 97.825003-90.62502 0c-23.193235 0-41.998533 18.805298-41.998533 41.998533s18.805298 41.998533 41.998533 41.998533l108.030435 0 0 55.997362-108.030435 0c-23.193235 0-41.998533 18.805298-41.998533 41.998533s18.805298 41.998533 41.998533 41.998533l108.030435 0L470.097658 739.065506c0 23.193235 18.805298 41.998533 41.998533 41.998533 23.193235 0 41.998533-18.805298 41.998533-41.998533l0-74.617441 108.030435 0c23.193235 0 41.998533-18.805298 41.998533-41.998533s-18.805298-41.998533-41.998533-41.998533L554.0937 580.450998l0-55.997362L662.124136 524.453636zM847.042729 214.368322c-15.387455-17.334807-41.943274-18.913768-59.292408-3.527336-17.34197 15.393595-18.928095 41.943274-3.527336 59.292408 93.928253 105.822141 118.037347 257.935584 61.404512 387.53322-38.894845 89.102341-110.163005 157.719114-200.667276 193.20942-90.50427 35.469839-189.429327 33.597189-278.518365-5.297656-183.933149-80.332606-268.223904-295.320029-187.898461-479.247039 38.894845-89.096201 110.170169-157.711951 200.680579-193.20942 90.50427-35.477003 189.416024-33.617655 278.504038 5.297656 21.285792 9.296737 46.017056-0.410346 55.293327-21.675672 9.289574-21.259186-0.416486-46.010917-21.675672-55.293327-109.643166-47.883567-231.379765-50.201355-342.779947-6.52153C237.159398 138.608871 149.437497 223.063355 101.568257 332.720847c-98.863658 226.368634 4.880147 490.962871 231.256968 589.833693 57.481156 25.093515 118.263497 37.678134 179.155333 37.670971 55.272861 0 110.63475-10.369162 163.637917-31.156604 111.400183-43.679825 199.115943-128.127146 246.985184-237.784638C992.292857 531.801998 962.633351 344.601432 847.042729 214.368322z" /></svg>