<?xml version="1.0" standalone="no"?><!DOCTYPE svg PUBLIC "-//W3C//DTD SVG 1.1//EN" "http://www.w3.org/Graphics/SVG/1.1/DTD/svg11.dtd"><svg class="icon" width="128px" height="128.00px" viewBox="0 0 1024 1024" version="1.1" xmlns="http://www.w3.org/2000/svg"><path fill="#333333" d="M503.160681 869.8819 213.232452 869.8819c-13.924127 0-25.64917-12.992919-25.64917-28.398794L187.583283 462.622406c2.676969 0.164752 5.373381 0.258896 8.090259 0.258896 43.022862 0 81.295538-21.11797 105.353466-53.728692 24.040533 32.629141 62.313208 53.764508 105.353466 53.764508 43.022862 0 81.278141-21.11797 105.33607-53.711296 24.040533 32.646538 62.330604 53.7993 105.370863 53.7993 42.971697 0 81.20958-21.065781 105.267509-53.572126 24.040533 32.750915 62.348 53.973262 105.439424 53.973262 72.618924 0 131.692345-59.901275 131.692345-133.578298 0-1.344624-0.103354-2.625804-0.291642-3.954055L924.07722 88.534406c-1.938142-13.117762-13.015432-22.64372-26.047236-22.64372L125.437897 65.890686c-13.031804 0-24.109094 9.525957-26.047236 22.64372L64.272839 325.780785c-0.188288 1.327228-0.291642 2.65548-0.291642 4.000104 0 51.127448 28.667923 95.601358 70.607104 117.887944l0 393.814274c0 44.768623 35.929304 82.381266 78.643128 82.381266l289.928229 0c14.541181 0 26.337855-12.17939 26.337855-26.990724C529.498536 882.06129 517.701862 869.8819 503.160681 869.8819zM148.107199 118.723985l727.254505 0 31.43085 212.698287c-0.994654 43.231617-36.043914 78.322833-78.998215 78.322833-43.571355 0-79.015611-36.227086-79.015611-80.751139 0-14.812357-11.797697-26.830065-26.338878-26.830065-14.541181 0-26.337855 12.017708-26.337855 26.830065 0 44.296879-35.443233 80.348979-79.015611 80.348979s-79.015611-36.122709-79.015611-80.541361c0-14.812357-11.797697-26.830065-26.338878-26.830065-14.541181 0-26.337855 12.015661-26.337855 26.828019 0 44.366464-35.443233 80.450287-79.015611 80.450287s-79.015611-36.128849-79.015611-80.513732c0-14.812357-11.797697-26.843368-26.337855-26.843368-14.541181 0-26.337855 11.989055-26.337855 26.801413 0 44.366464-35.443233 80.414471-79.015611 80.414471-42.954301 0-78.003562-34.751478-78.998215-77.685313L148.107199 118.723985zM930.130076 703.43603c16.324804-21.083178 18.365276-49.732681 5.178953-72.982198l-10.957563-19.360953c-12.929474-22.776749-37.929868-35.43914-63.444984-32.102139l-20.268626 2.571568c-13.374612 1.711991-25.669636-5.964852-30.196743-17.668405l-8.075933-24.559349c-10.18599-26.375717-34.689057-45.031613-59.58712-45.031613l-20.936845 0c-24.915459 0-49.435922 18.673292-59.759035 45.502333l-7.476275 21.345144c-4.989641 12.925381-17.696034 20.995173-31.139208 19.230993l-19.256576-2.235924c-25.961278-3.580548-50.996464 9.152451-64.114227 32.401967l-10.957563 19.546172c-13.066597 23.178909-11.059893 51.754734 5.126764 72.785723l12.346189 16.034185c8.247848 10.707876 8.247848 25.65838-0.017396 36.383652l-12.226462 15.841803c-16.255219 21.065781-18.261922 49.674353-5.126764 72.888054l10.425444 18.405185c13.237489 23.301705 39.627533 36.075637 65.657372 31.761378l18.639522-3.080152c13.323447-2.218528 26.252921 5.123694 31.962969 19.254529l6.189979 12.134365c9.328459 23.26589 31.483038 36.966936 59.278081 36.966936l21.828145 0c27.813462 0 49.967018-13.701047 59.003835-36.356023l7.184633-16.006556c4.88731-12.19167 17.678638-19.336394 30.762631-17.187451l19.581987 3.476171c26.166963 4.139274 51.801806-8.244778 65.005526-31.458479l10.425444-18.165732c13.254885-23.301705 11.248182-51.982932-5.110391-73.083505l-11.917424-15.35471c-8.299013-10.725272-8.299013-25.730011 0-36.437887L930.130076 703.43603zM904.83804 825.758983l-10.425444 18.162662c-5.933129 10.444886-17.198707 16.010649-28.979008 14.159488l-19.581987-3.488451c-29.664623-4.558829-57.924247 11.416004-68.692498 38.33305l-7.184633 16.159028c-5.178953 12.942777-18.98233 14.780635-26.750247 14.780635l-21.828145 0c-7.767917 0-21.571295-1.836835-27.367301-16.160051l-6.189979-12.125155c-9.996678-24.943089-33.402761-40.593534-59.072397-40.593534-3.429099 0-6.910387 0.279363-10.408047 0.855484l-18.639522 3.056616c-11.711739 2.026146-23.662933-3.825119-29.630854-14.340613l-10.425444-18.410302c-5.933129-10.463306-5.024433-23.388686 2.314719-32.908504l12.226462-15.842827c18.296715-23.702841 18.313088-56.8201 0.051165-80.557734l-12.346189-16.033162c-7.30436-9.502421-8.214079-22.406313-2.297322-32.921807l10.957563-19.537985c5.966898-10.532891 17.216103-16.229636 29.305443-14.674211l19.273972 2.266623c28.532847 3.894703 57.340963-13.510712 68.314898-42.051745l7.476275-20.977777c4.852518-12.593829 16.427134-21.850657 26.903743-21.850657l20.936845 0c10.476609 0 22.027689 9.256828 26.589588 21.012569l8.069793 24.173562c10.717086 27.789926 38.448684 44.558845 67.565838 40.872896l20.243043-2.602268c11.608386-1.502213 22.773679 4.227278 28.586059 14.480806l10.858302 19.35379c0 0 0 0 0 0.017396 5.637394 10.480702 5.140067 23.406083-2.232854 32.908504l-11.869329 15.458063c-18.399045 23.772426-18.399045 56.977689 0 80.767512l11.93482 15.370059C909.896242 802.372344 910.788565 815.314097 904.83804 825.758983zM732.301452 646.5136c-47.429219 0-86.028329 39.318494-86.028329 87.650269 0 48.314379 38.59911 87.632873 86.028329 87.632873 47.446615 0 86.045725-39.318494 86.045725-87.632873C818.346153 685.833117 779.748067 646.5136 732.301452 646.5136zM732.301452 786.025027c-28.070312 0-50.910507-23.26589-50.910507-51.860135 0-28.611641 22.840194-51.877531 50.910507-51.877531 28.087709 0 50.927903 23.266913 50.927903 51.877531C783.228331 762.758114 760.388137 786.025027 732.301452 786.025027z" /></svg>