<?xml version="1.0" standalone="no"?><!DOCTYPE svg PUBLIC "-//W3C//DTD SVG 1.1//EN" "http://www.w3.org/Graphics/SVG/1.1/DTD/svg11.dtd"><svg class="icon" width="128px" height="128.00px" viewBox="0 0 1024 1024" version="1.1" xmlns="http://www.w3.org/2000/svg"><path fill="#333333" d="M515.126288 1017.946974c-125.271534 0-250.558417-1.059152-375.809484 0.562834-45.205816 0.583301-51.412342-18.220477-56.8309-53.351561-1.028452-6.66191-0.194434-13.610353-0.194434-20.43088 0-244.582142-0.066517-489.159167 0.189317-733.741308 0.01535-12.459102 3.970539-24.90797 4.062639-37.377305 0.209784-28.412892 16.148224-36.031619 41.363194-35.095268 25.532204 0.946585 51.136042-0.266067 76.683596 0.378634 17.611592 0.445151 27.983091-4.241723 31.70803-24.120002 4.298006-22.93805 12.873552-45.134183 20.359246-67.396832 7.194044-21.387698 22.098916-32.06108 45.364433-32.01503 136.349133 0.26095 272.703383 0.255834 409.052516 0.005117 23.0455-0.040933 38.282956 10.458482 45.824934 31.467546 8.836496 24.616319 15.268156 50.163873 25.286604 74.253175 3.167221 7.618728 14.270404 16.439874 22.134732 16.838975 35.699036 1.806186 71.546455 1.059152 107.337591 0.700984 21.346765-0.2149 33.544916 8.565313 34.885484 30.868895 1.059152 17.601359 4.390106 35.141318 4.410573 52.711977 0.301884 242.023805 0.250717 484.047609 0.040933 726.071414-0.010233 10.826883-1.708969 21.771449-3.750522 32.449948-5.592525 29.26226-14.961155 37.177754-43.517314 37.193104C774.188617 1017.987908 644.660011 1017.946974 515.126288 1017.946974zM920.259431 981.378104c0-270.298546 0-538.197372 0-807.89215-51.601659 0-100.839414 0-150.07717 0-11.3232-34.210083-22.6464-66.639564-32.669965-99.473262-4.825024-15.810523-11.998601-23.459951-30.311178-23.352501-133.831729 0.777734-267.668575 0.752151-401.500305-0.005117-16.905491-0.097217-24.964253 6.365143-29.33901 21.116514-8.099695 27.333273-17.212492 54.40048-24.299086 81.994703-3.832389 14.925339-10.514765 20.50763-26.396922 19.980613-37.162404-1.228002-74.391326-0.393984-112.551482-0.393984 0 271.245131 0 539.149073 0 808.025184C382.829561 981.378104 650.211602 981.378104 920.259431 981.378104zM688.893659 396.143147c7.316844 9.813781 12.162334 16.322191 18.716794 25.112637-74.626693 94.187738-149.314785 188.452226-226.520282 285.894169-12.776335-10.780832-25.997821-21.136981-38.282956-32.511348-14.971389-13.866187-28.310558-29.58461-43.895948-42.667946-18.07721-15.181172-13.43127-27.686324 5.715325-45.195583 22.027282 26.059222 44.090381 52.164493 67.862449 80.285734C547.688802 572.914006 617.664438 485.311428 688.893659 396.143147zM514.29227 173.352921c-40.073792 0-80.157817-0.480967-120.216259 0.26095-13.912237 0.255834-24.263269-2.573687-24.027902-18.128377 0.209784-13.73827 9.38398-17.089692 22.487783-17.012942 82.700804 0.501434 165.411842 0.480967 248.112647 0.01535 12.899136-0.071633 22.359866 2.768121 22.743617 16.746875 0.434917 15.713306-9.813781 18.599111-23.766951 18.36886C597.857792 172.912887 556.069915 173.352921 514.29227 173.352921z" /></svg>