<?xml version="1.0" standalone="no"?><!DOCTYPE svg PUBLIC "-//W3C//DTD SVG 1.1//EN" "http://www.w3.org/Graphics/SVG/1.1/DTD/svg11.dtd"><svg t="1552112017554" class="icon" style="" viewBox="0 0 1024 1024" version="1.1" xmlns="http://www.w3.org/2000/svg" p-id="2460" xmlns:xlink="http://www.w3.org/1999/xlink" width="200" height="200"><defs><style type="text/css"></style></defs><path d="M732.553846 661.661538H307.2a39.384615 39.384615 0 0 1-39.384615-39.384615 39.384615 39.384615 0 0 1 39.384615-39.384615h425.353846a47.261538 47.261538 0 0 1 39.384616 39.384615 39.384615 39.384615 0 0 1-39.384616 39.384615zM732.553846 488.369231H307.2a39.384615 39.384615 0 1 1 0-78.769231h425.353846a39.384615 39.384615 0 0 1 39.384616 39.384615 39.384615 39.384615 0 0 1-39.384616 39.384616z" p-id="2461" fill="#d81e06"></path><path d="M519.876923 811.323077a39.384615 39.384615 0 0 1-39.384615-39.384615V448.984615a39.384615 39.384615 0 0 1 39.384615-39.384615 39.384615 39.384615 0 0 1 39.384615 39.384615v322.953847a39.384615 39.384615 0 0 1-39.384615 39.384615z" p-id="2462" fill="#d81e06"></path><path d="M527.753846 472.615385l-31.507692-15.753847a39.384615 39.384615 0 0 1 0-55.138461l181.169231-173.292308a39.384615 39.384615 0 0 1 55.138461 55.138462L551.384615 464.738462z" p-id="2463" fill="#d81e06"></path><path d="M527.753846 472.615385h-31.507692L315.076923 283.569231a39.384615 39.384615 0 1 1 55.138462-55.138462L551.384615 401.723077a39.384615 39.384615 0 0 1 0 55.138461z" p-id="2464" fill="#d81e06"></path><path d="M512 1024A512 512 0 1 1 1024 512 512 512 0 0 1 512 1024z m0-945.230769A433.230769 433.230769 0 0 0 78.769231 512 433.230769 433.230769 0 0 0 512 945.230769 433.230769 433.230769 0 0 0 945.230769 512 433.230769 433.230769 0 0 0 512 78.769231z" p-id="2465" fill="#d81e06"></path></svg>