<?xml version="1.0" standalone="no"?><!DOCTYPE svg PUBLIC "-//W3C//DTD SVG 1.1//EN" "http://www.w3.org/Graphics/SVG/1.1/DTD/svg11.dtd"><svg class="icon" width="200px" height="200.00px" viewBox="0 0 1024 1024" version="1.1" xmlns="http://www.w3.org/2000/svg"><path fill="#333333" d="M852.433139 685.154851 852.433139 418.784975c0-123.539645-66.800456-222.86993-170.669996-274.767248C661.336995 62.843464 593.325073 2.700582 512 2.700582c-78.905136 0-142.982038 57.721946-163.181473 138.140166-107.652752 50.913563-177.252665 151.832837-177.252665 277.944227l0 265.992353C110.137607 698.546902 67.242896 747.94638 67.242896 810.359389l0 45.466457c0 38.808883 32.605733 70.43186 72.626083 70.43186l300.943119 0c-2.194223 7.036095-4.463351 14.222999-4.463351 22.091041 0 41.760147 33.892105 75.651254 75.652253 75.651254 41.760147 0 75.651254-33.892105 75.651254-75.651254 0-7.868042-2.268129-15.054946-4.463351-22.165946l300.944118 0c40.018352 0 72.625084-31.622977 72.625084-70.43186L956.758103 810.284484C956.757104 748.476709 914.54453 699.301946 852.433139 685.154851zM512 78.351836c26.175871 0 50.308329 12.331393 68.46435 31.84969-21.938234-3.631404-44.785319-5.749723-68.46435-5.749723-22.619372 0-44.331892 2.194223-65.363275 5.52301C463.506375 90.380612 486.353459 78.351836 512 78.351836zM881.104852 850.530547l-738.210702 5.220393L142.89415 810.284484c0-31.621978 26.32668-53.713019 66.497839-53.713019l37.827125 0L247.219113 418.784975c0-140.561102 108.862221-238.680919 264.780887-238.680919s264.780887 98.120816 264.780887 238.680919l0 296.102246L410.248779 714.887221c-20.879574 0-37.826126 16.945553-37.826126 37.825128s16.946552 37.826126 37.826126 37.826126l466.545528 0c2.571745 6.05234 4.310544 12.63401 4.310544 19.820914L881.104852 850.530547z" /></svg>