<?xml version="1.0" standalone="no"?><!DOCTYPE svg PUBLIC "-//W3C//DTD SVG 1.1//EN" "http://www.w3.org/Graphics/SVG/1.1/DTD/svg11.dtd"><svg class="icon" width="128px" height="128.00px" viewBox="0 0 1024 1024" version="1.1" xmlns="http://www.w3.org/2000/svg"><path fill="#66b1ff" d="M512 1024C230.4 1024 0 793.6 0 512S230.4 0 512 0s512 230.4 512 512-230.4 512-512 512z m0-960C265.6 64 64 265.6 64 512s201.6 448 448 448 448-201.6 448-448S758.4 64 512 64z"  /><path fill="#66b1ff" d="M448 710.4c-9.6 0-22.4-3.2-32-9.6-19.2-12.8-32-32-32-54.4v-268.8c0-22.4 12.8-44.8 32-54.4 19.2-12.8 44.8-9.6 64 0l224 134.4c19.2 12.8 32 32 32 54.4s-12.8 41.6-32 54.4l-224 134.4c-9.6 6.4-22.4 9.6-32 9.6z m0-332.8v268.8l224-134.4-224-134.4z"  /></svg>