<?xml version="1.0" standalone="no"?><!DOCTYPE svg PUBLIC "-//W3C//DTD SVG 1.1//EN" "http://www.w3.org/Graphics/SVG/1.1/DTD/svg11.dtd"><svg class="icon" width="128px" height="128.00px" viewBox="0 0 1024 1024" version="1.1" xmlns="http://www.w3.org/2000/svg"><path fill="#333333" d="M848 64H176c-30.9 0-56 25.1-56 56v784c0 30.9 25.1 56 56 56h672c30.9 0 56-25.1 56-56V120c0-30.9-25.1-56-56-56z m-196 56h84v197.3L672.8 292l-20.8-8.3-20.8 8.3-63.2 25.3V120h84z m196 784H176V120h336v238.6c0 16.1 13.2 28 28 28 3.4 0 7-0.6 10.4-2L652 344l101.6 40.6c3.5 1.4 7 2 10.4 2 14.8 0 28-12 28-28V120h56v784zM288 568h224c15.5 0 28-12.5 28-28s-12.5-28-28-28H288c-15.5 0-28 12.5-28 28s12.5 28 28 28zM736 680H288c-15.5 0-28 12.5-28 28s12.5 28 28 28h448c15.5 0 28-12.5 28-28s-12.5-28-28-28z" /></svg>