<?xml version="1.0" standalone="no"?><!DOCTYPE svg PUBLIC "-//W3C//DTD SVG 1.1//EN" "http://www.w3.org/Graphics/SVG/1.1/DTD/svg11.dtd"><svg class="icon" width="128px" height="128.00px" viewBox="0 0 1024 1024" version="1.1" xmlns="http://www.w3.org/2000/svg"><path fill="#333333" d="M352 416C349.632 423.168 320 512 200 512 107.2 512 32 448 32 337.792 32 283.264 74.688 192 160 64h704c85.312 128 128 219.264 128 273.792C992 448 916.8 512 824 512 704 512 674.368 423.168 672 416 669.632 423.168 640 512 512 512S354.368 423.168 352 416zM829.44 128H194.56C128.64 230.656 96 303.232 96 337.792 96 407.552 137.344 448 200 448c53.888 0 79.232-16 91.264-52.224 19.456-58.368 102.016-58.368 121.472 0C424.576 431.36 452.352 448 512 448c59.648 0 87.424-16.64 99.264-52.224 19.456-58.368 102.016-58.368 121.472 0 12.032 36.224 37.376 52.224 91.264 52.224 62.72 0 104-40.512 104-110.208 0-34.56-32.64-107.136-98.56-209.792zM832 576a32 32 0 1 1 64 0v224a160 160 0 0 1-160 160h-448A160 160 0 0 1 128 800V576a32 32 0 0 1 64 0v224A96 96 0 0 0 288 896h448a96 96 0 0 0 96-96V576z m-480 128h320a32 32 0 1 1 0 64h-320a32 32 0 1 1 0-64z" /></svg>