<?xml version="1.0" standalone="no"?><!DOCTYPE svg PUBLIC "-//W3C//DTD SVG 1.1//EN" "http://www.w3.org/Graphics/SVG/1.1/DTD/svg11.dtd"><svg class="icon" width="128px" height="128.00px" viewBox="0 0 1024 1024" version="1.1" xmlns="http://www.w3.org/2000/svg"><path fill="#d81e06" d="M991.50052 192.332986 831.667014 192.332986 831.667014 64.466181c0-35.163371-28.770031-63.933403-63.933403-63.933403L261.594173 0.532778c-35.163371 0-63.933403 28.770031-63.933403 63.933403l0 127.866805L32.49948 192.332986c-17.581686 0-31.966701 14.385016-31.966701 31.966701s14.385016 31.966701 31.966701 31.966701l229.094693 0 506.139438 0 223.766909 0c17.581686 0 31.966701-14.385016 31.966701-31.966701S1009.082206 192.332986 991.50052 192.332986zM261.700728 192.332986c0 0-0.106556-0.106556-0.106556-0.106556l0-127.653694c0 0 0.106556-0.106556 0.106556-0.106556l505.926327 0c0 0 0.106556 0.106556 0.106556 0.106556l0 127.653694c0 0-0.106556 0.106556-0.106556 0.106556L261.700728 192.332986zM863.633715 320.199792c-17.688241 0-31.966701 14.27846-31.966701 31.966701l0 575.400624c0 17.581686-14.385016 31.966701-31.966701 31.966701L224.299688 959.533819c-17.581686 0-31.966701-14.385016-31.966701-31.966701L192.332986 352.166493c0-17.688241-14.27846-31.966701-31.966701-31.966701s-31.966701 14.27846-31.966701 31.966701l0 575.400624c0 52.851613 43.048491 95.900104 95.900104 95.900104l575.400624 0c52.851613 0 95.900104-43.048491 95.900104-95.900104L895.600416 352.166493C895.600416 334.478252 881.321956 320.199792 863.633715 320.199792zM416.099896 799.700312 416.099896 352.166493c0-17.581686-14.385016-31.966701-31.966701-31.966701s-31.966701 14.385016-31.966701 31.966701l0 447.533819c0 17.581686 14.385016 31.966701 31.966701 31.966701S416.099896 817.281998 416.099896 799.700312zM671.833507 799.700312 671.833507 352.166493c0-17.581686-14.385016-31.966701-31.966701-31.966701s-31.966701 14.385016-31.966701 31.966701l0 447.533819c0 17.581686 14.385016 31.966701 31.966701 31.966701S671.833507 817.281998 671.833507 799.700312z" /></svg>