<?xml version="1.0" standalone="no"?><!DOCTYPE svg PUBLIC "-//W3C//DTD SVG 1.1//EN" "http://www.w3.org/Graphics/SVG/1.1/DTD/svg11.dtd"><svg class="icon" width="128px" height="128.00px" viewBox="0 0 1024 1024" version="1.1" xmlns="http://www.w3.org/2000/svg"><path fill="#333333" d="M255.863389 936.956551c0 12.43317-10.079566 22.512736-22.512736 22.512736l-18.935258 0c-12.43317 0-22.512736-10.079566-22.512736-22.512736L191.902658 534.257933c0-12.43317 10.079566-22.512736 22.512736-22.512736l18.935258 0c12.43317 0 22.512736 10.079566 22.512736 22.512736L255.863389 936.956551zM447.74558 936.956551c0 12.43317-10.079566 22.512736-22.512736 22.512736L406.297586 959.469288c-12.43317 0-22.512736-10.079566-22.512736-22.512736L383.78485 662.179394c0-12.43317 10.079566-22.512736 22.512736-22.512736l18.935258 0c12.43317 0 22.512736 10.079566 22.512736 22.512736L447.74558 936.956551zM447.74558 936.956551c0 12.43317-10.079566 22.512736-22.512736 22.512736L214.415394 959.469288c-12.43317 0-22.512736-10.079566-22.512736-22.512736l0-18.935258c0-12.43317 10.079566-22.512736 22.512736-22.512736l210.81745 0c12.43317 0 22.512736 10.079566 22.512736 22.512736L447.74558 936.956551zM639.627772 681.114652c0 12.43317-10.079566 22.512736-22.512736 22.512736L406.297586 703.627389c-12.43317 0-22.512736-10.079566-22.512736-22.512736l0-18.935258c0-12.43317 10.079566-22.512736 22.512736-22.512736l210.81745 0c12.43317 0 22.512736 10.079566 22.512736 22.512736L639.627772 681.114652zM639.627772 936.956551c0 12.43317-10.079566 22.512736-22.512736 22.512736l-18.935258 0c-12.43317 0-22.512736-10.079566-22.512736-22.512736L575.667042 662.179394c0-12.43317 10.079566-22.512736 22.512736-22.512736l18.935258 0c12.43317 0 22.512736 10.079566 22.512736 22.512736L639.627772 936.956551zM831.508941 936.956551c0 12.43317-10.079566 22.512736-22.512736 22.512736L598.179778 959.469288c-12.43317 0-22.512736-10.079566-22.512736-22.512736l0-18.935258c0-12.43317 10.079566-22.512736 22.512736-22.512736l210.81745 0c12.43317 0 22.512736 10.079566 22.512736 22.512736L831.509964 936.956551zM831.508941 936.956551c0 12.43317-10.079566 22.512736-22.512736 22.512736l-18.935258 0c-12.43317 0-22.512736-10.079566-22.512736-22.512736L767.54821 534.257933c0-12.43317 10.079566-22.512736 22.512736-22.512736l18.935258 0c12.43317 0 22.512736 10.079566 22.512736 22.512736L831.508941 936.956551zM938.731988 459.924971 549.252439 70.614268c-4.300956-4.300956-9.908674-6.482645-15.545044-6.575766L533.707394 64.021106l-44.391023 0 0 0.014326c-5.65786 0.077771-11.291161 2.26253-15.608489 6.578836L84.679611 459.924971c-8.792247 8.791224-8.792247 23.045879 0 31.838126l13.388938 13.388938c8.792247 8.792247 23.045879 8.792247 31.838126 0l376.896976-377.170199 9.531074 0 377.170199 377.170199c8.792247 8.792247 23.045879 8.792247 31.838126 0l13.388938-13.388938C947.524235 482.97085 947.524235 468.716194 938.731988 459.924971z" /></svg>