<?xml version="1.0" standalone="no"?><!DOCTYPE svg PUBLIC "-//W3C//DTD SVG 1.1//EN" "http://www.w3.org/Graphics/SVG/1.1/DTD/svg11.dtd"><svg class="icon" width="128px" height="128.00px" viewBox="0 0 1024 1024" version="1.1" xmlns="http://www.w3.org/2000/svg"><path fill="#333333" d="M963.54816 955.7248h-869.888l25.6 25.6v-383.06304c0-58.36288-7.77728-120.704 31.89248-169.27232 43.39712-53.12512 104.25344-50.7904 165.33504-50.7904h481.536c57.2672 0 105.06752 34.45248 129.0752 85.26848 11.0848 23.46496 10.8544 49.25952 10.8544 74.49088v443.37152c0 33.01376 51.2 33.01376 51.2 0v-383.06816c0-59.56608 4.81792-117.92896-23.86432-172.7232-38.1184-72.8064-114.02752-98.5344-190.91456-98.5344H337.65888c-54.56384 0-107.4176-3.95264-158.96576 17.85344-51.93216 21.9648-89.36448 71.43936-104.3968 124.63104-6.528 23.1168-6.23104 47.03232-6.23104 70.77376v441.06752c0 13.96224 11.64288 25.6 25.6 25.6h869.90336c33.00352-0.00512 33.00352-51.20512-0.02048-51.20512zM121.61536 623.21152H935.59808c33.00864 0 33.00864-51.2 0-51.2H121.61024c-33.01376 0-33.01376 51.2 0.00512 51.2zM554.20928 971.0848v-217.46688c0-33.01376-51.2-33.01376-51.2 0v217.46688c0 33.01376 51.2 33.01376 51.2 0zM347.38176 971.0848v-217.46688c0-33.01376-51.2-33.01376-51.2 0v217.46688c0 33.01376 51.2 33.01376 51.2 0zM776.89856 971.0848v-217.46688c0-33.01376-51.2-33.01376-51.2 0v217.46688c0 33.01376 51.2 33.01376 51.2 0zM374.56384 348.15488V206.40768c0-86.85056 68.32128-143.40096 151.69024-143.40096 41.64096 0 78.53056 7.90016 110.61248 36.33152 30.09024 26.67008 45.77792 65.7664 45.77792 105.55392v143.26272c0 33.01888 51.2 33.01888 51.2 0 0-52.97664 2.78016-106.68544-0.60416-159.5648-6.8608-107.18208-100.0448-176.78336-202.27584-176.78336-48.03584 0-92.30336 9.23136-131.44576 38.656-41.63072 31.29856-69.25312 79.24736-74.79808 131.11296-5.85216 54.72256-1.3568 111.59552-1.3568 166.5792 0 33.01888 51.2 33.01888 51.2 0z" /></svg>