<?xml version="1.0" standalone="no"?><!DOCTYPE svg PUBLIC "-//W3C//DTD SVG 1.1//EN" "http://www.w3.org/Graphics/SVG/1.1/DTD/svg11.dtd"><svg class="icon" width="128px" height="128.00px" viewBox="0 0 1024 1024" version="1.1" xmlns="http://www.w3.org/2000/svg"><path fill="#333333" d="M809.274544 847.736531c-18.866696 0-34.133402-15.283078-34.133402-34.133402 0-25.632797-62.700017-68.017116-180.366927-80.899518-17.333784-1.90028-30.433126-16.517185-30.433126-33.932834L564.341089 661.137669c0-11.516288 5.8001-22.267143 15.46625-28.566616 47.600111-31.116695 79.56615-96.117105 79.56615-161.749918 0-153.316851-70.466911-172.983773-131.833561-172.983773-61.400419 0-131.866307 19.666922-131.866307 172.983773 0 65.632813 31.999808 130.633223 79.599919 161.749918 9.667174 6.299473 15.46625 17.050328 15.46625 28.566616l0 37.633109c0 17.416671-13.100366 32.033577-30.433126 33.932834-117.66691 12.883425-180.366927 55.266721-180.366927 80.899518 0 18.850323-15.266705 34.133402-34.133402 34.133402s-34.133402-15.283078-34.133402-34.133402c0-67.333548 77.69964-121.583103 201.233164-143.132908-52.700269-47.099714-85.500303-122.183783-85.500303-199.650109 0-199.400423 108.833731-241.249553 200.13311-241.249553s200.100364 41.850154 200.100364 241.249553c0 77.466326-32.800034 152.532999-85.466534 199.650109 123.533524 21.549805 201.233164 75.800383 201.233164 143.132908C843.407945 832.452429 828.14124 847.736531 809.274544 847.736531zM527.541975 956.086238c-254.100232 0-460.799898-206.717062-460.799898-460.799898S273.441742 34.486442 527.541975 34.486442 988.341872 241.203504 988.341872 495.28634 781.641183 956.086238 527.541975 956.086238zM527.541975 102.753245c-216.433354 0-392.533095 176.083367-392.533095 392.533095s176.09974 392.533095 392.533095 392.533095 392.533095-176.083367 392.533095-392.533095S743.975329 102.753245 527.541975 102.753245z" /></svg>