<?xml version="1.0" standalone="no"?><!DOCTYPE svg PUBLIC "-//W3C//DTD SVG 1.1//EN" "http://www.w3.org/Graphics/SVG/1.1/DTD/svg11.dtd"><svg class="icon" width="128px" height="128.00px" viewBox="0 0 1024 1024" version="1.1" xmlns="http://www.w3.org/2000/svg"><path fill="#333333" d="M169.536 540.544a107.712 107.712 0 0 0-75.904 33.984A107.84 107.84 0 0 0 64 652.352a109.312 109.312 0 0 0 80.704 101.44v162.176a27.968 27.968 0 1 0 55.872 0v-161.792c47.616-12.8 82.304-56.96 80.768-108.224-1.728-58.112-50.496-105.408-111.808-105.408z m4.928 169.536l-0.768 11.456-0.896-0.128v-11.328a61.312 61.312 0 0 1-60.864-59.072 60.928 60.928 0 0 1 60.544-62.528c32.64 0 59.904 26.368 60.8 58.88a60.928 60.928 0 0 1-58.816 62.72zM172.608 475.904a27.968 27.968 0 0 0 27.904-27.968V114.176a27.904 27.904 0 1 0-55.872 0v333.76a28.096 28.096 0 0 0 27.968 27.968zM952.96 645.888c-1.792-59.072-49.6-105.344-111.744-105.344h-0.128a107.776 107.776 0 0 0-75.84 34.048 107.648 107.648 0 0 0-29.632 77.824c1.408 49.472 35.136 89.6 80.704 101.632v161.984a27.904 27.904 0 1 0 55.936 0v-161.856a109.248 109.248 0 0 0 80.704-108.288z m-106.88 64.192l-0.832 11.456-0.896-0.128v-11.328a61.12 61.12 0 0 1-60.736-59.136 60.8 60.8 0 0 1 60.48-62.464c32.576 0 59.904 26.432 60.864 58.816a61.12 61.12 0 0 1-58.88 62.784zM844.16 475.904a28.032 28.032 0 0 0 28.032-27.968V114.176a27.968 27.968 0 0 0-55.936 0v333.76a28.032 28.032 0 0 0 27.904 27.968zM540.928 276.8V114.176a27.904 27.904 0 1 0-55.872 0v162.24a109.568 109.568 0 0 0-80.768 101.568c-0.768 28.992 9.728 56.64 29.696 77.76 19.968 21.12 46.976 33.216 75.968 33.984h2.944a109.44 109.44 0 0 0 108.736-105.472c1.536-50.624-32.192-94.016-80.704-107.456z m-27.968 164.992v24l-1.664-24.064c-16.192-0.384-31.232-7.168-42.368-19.008s-17.088-27.2-16.64-43.328a61.632 61.632 0 0 1 62.4-59.136 60.992 60.992 0 0 1 59.008 62.592 61.12 61.12 0 0 1-60.736 58.944zM513.024 554.432a27.968 27.968 0 0 0-27.968 27.968v333.632a27.968 27.968 0 1 0 55.872 0V582.4a27.904 27.904 0 0 0-27.904-27.968z" /></svg>